<svg width="80" height="84" viewBox="0 0 80 84" fill="none" xmlns="http://www.w3.org/2000/svg">
<path d="M37.7976 17.48H58.1976M37.7976 66.44H54.1176M37.7976 49.916L58.1976 50.12M37.7976 33.8H50.0376M25.4352 21.56H1.32239M78.5976 70.52V13.4C78.5976 5.24 74.5176 1.16 66.3576 1.16H50.0376C41.8776 1.16 37.7976 5.24 37.7976 13.4V70.52C37.7976 78.68 41.8776 82.76 50.0376 82.76H66.3576C74.5176 82.76 78.5976 78.68 78.5976 70.52ZM13.3992 1.16C6.74879 1.16 1.32239 6.5864 1.32239 13.196V66.0728C1.32239 67.9088 2.09759 70.6832 3.03599 72.2744L6.38159 77.8232C10.2168 84.2288 16.5408 84.2288 20.376 77.8232L23.7216 72.2744C24.66 70.6832 25.4352 67.9088 25.4352 66.0728V13.196C25.4352 6.5864 20.0088 1.16 13.3992 1.16Z" stroke="black" stroke-width="1.5" stroke-linecap="round"/>
</svg>
