<svg width="84" height="80" viewBox="0 0 84 80" fill="none" xmlns="http://www.w3.org/2000/svg">
<path d="M33.8 60.156H18.3368C4.5872 60.156 1.16 56.7288 1.16 42.9792V18.4992C1.16 4.74959 4.5872 1.32239 18.3368 1.32239H61.2992C75.0488 1.32239 78.476 4.74959 78.476 18.4992M33.8 78.5976V60.156M1.16 43.836H33.8M20.4992 78.5976H33.8" stroke="black" stroke-width="1.5" stroke-linecap="round" stroke-linejoin="round"/>
<path d="M82.76 43.224V66.5208C82.76 76.1904 80.3528 78.5976 70.6832 78.5976H56.1992C46.5296 78.5976 44.1224 76.1904 44.1224 66.5208V43.224C44.1224 33.5544 46.5296 31.1472 56.1992 31.1472H70.6832C80.3528 31.1472 82.76 33.5544 82.76 43.224Z" stroke="black" stroke-width="1.5" stroke-linecap="round" stroke-linejoin="round"/>
<path d="M63.3555 65.46H63.3963" stroke="black" stroke-width="2" stroke-linecap="round" stroke-linejoin="round"/>
</svg>
