<svg width="84" height="84" viewBox="0 0 84 84" fill="none" xmlns="http://www.w3.org/2000/svg">
<path d="M82.76 41.96C82.76 19.4384 64.4816 1.16 41.96 1.16C19.4384 1.16 1.16 19.4384 1.16 41.96C1.16 64.4816 19.4384 82.76 41.96 82.76" stroke="black" stroke-width="1.5" stroke-linecap="round" stroke-linejoin="round"/>
<path d="M25.64 5.23999H29.72C21.7641 29.0736 21.7641 54.8464 29.72 78.68H25.64M54.2 5.23999C58.1576 17.1536 60.1568 29.5568 60.1568 41.96" stroke="black" stroke-width="1.5" stroke-linecap="round" stroke-linejoin="round"/>
<path d="M5.24 58.28V54.2C17.1536 58.1576 29.5568 60.1568 41.96 60.1568M5.24 29.72C29.0736 21.7641 54.8464 21.7641 78.68 29.72M82.76 82.76L78.68 78.68M67.256 80.312C70.7187 80.312 74.0395 78.9365 76.488 76.488C78.9365 74.0395 80.312 70.7187 80.312 67.256C80.312 63.7933 78.9365 60.4725 76.488 58.024C74.0395 55.5756 70.7187 54.2 67.256 54.2C63.7933 54.2 60.4725 55.5756 58.024 58.024C55.5755 60.4725 54.2 63.7933 54.2 67.256C54.2 70.7187 55.5755 74.0395 58.024 76.488C60.4725 78.9365 63.7933 80.312 67.256 80.312Z" stroke="black" stroke-width="1.5" stroke-linecap="round" stroke-linejoin="round"/>
</svg>
